# xmcd
#
# Track frame offsets: 
#        150
#        11113
#        21728
#        32985
#        46618
#        58063
#        69670
#        80900
#        95340
#        105738
#        118415
#        131098
#        142080
#
# Disc length: 2058 seconds
#
# Revision: 3
# Processed by: cddbd v1.5.2PL0 Copyright (c) Steve Scherf et al.
# Submitted via: ExactAudioCopy v1.0b1
#
DISCID=c708080d
DTITLE=Billy Boy Arnold - More Blues On The South Side
DYEAR=1963
DGENRE=Blues
TTITLE0=School Time
TTITLE1=Goin' By The River
TTITLE2=You Don't Love Me No More
TTITLE3=You're My Girl
TTITLE4=Oh Baby
TTITLE5=Evaleena
TTITLE6=I Love Only You
TTITLE7=Two Drinks Of Wine
TTITLE8=I'll Forget About You
TTITLE9=Billy Boy's Blues
TTITLE10=You Better Cut That Out
TTITLE11=Get Out Of Here
TTITLE12=Playing With The Blues
EXTD=Prestige Records Original Blues Classics (OBCCD-562-2 (P-7389]\n\n
EXTD=Recorded in Chicago - December 30, 1963\nDigital remastering, 1993
EXTD=:  Phil De Lancie\n\nBilly Boy Arnold:  vocals, harmonica\nMighty
EXTD=Joe Young:  guitar\nLafayette Leake:  piano\nJerome Arnold:  ele
EXTD=ctric bass\nJunior Blackmon:  drums\n
EXTT0=
EXTT1=
EXTT2=
EXTT3=
EXTT4=
EXTT5=
EXTT6=
EXTT7=
EXTT8=
EXTT9=
EXTT10=
EXTT11=
EXTT12=
PLAYORDER=
